<?xml version="1.0" standalone="no"?>
<!DOCTYPE svg PUBLIC "-//W3C//DTD SVG 20010904//EN"
 "http://www.w3.org/TR/2001/REC-SVG-20010904/DTD/svg10.dtd">
<svg version="1.0" xmlns="http://www.w3.org/2000/svg"
 width="225.000000pt" height="225.000000pt" viewBox="0 0 225.000000 225.000000"
 preserveAspectRatio="xMidYMid meet">
<metadata>
Created by potrace 1.10, written by Peter Selinger 2001-2011
</metadata>
<g transform="translate(0.000000,225.000000) scale(0.100000,-0.100000)"
fill="#000000" stroke="none">
<path d="M995 2200 c-221 -31 -410 -114 -569 -249 -371 -314 -486 -835 -281
-1277 101 -220 300 -418 519 -519 315 -145 675 -136 972 24 366 198 599 607
569 1004 -32 435 -287 790 -679 947 -152 61 -382 92 -531 70z m310 -42 c263
-40 521 -202 678 -425 92 -132 139 -247 190 -472 l14 -64 -238 240 c-152 152
-239 247 -239 260 0 27 -35 57 -100 86 -101 46 -304 130 -332 138 -39 11 -86
-5 -123 -41 -28 -27 -33 -29 -45 -15 -23 28 -78 19 -117 -20 -20 -20 -33 -41
-30 -50 10 -24 -19 -6 -31 21 -14 28 -23 29 -67 8 -41 -19 -64 -64 -76 -147
-5 -34 -9 -65 -9 -69 0 -5 -32 -8 -70 -8 -57 0 -78 -5 -108 -24 -79 -49 -77
-38 -80 -433 -3 -338 -2 -353 17 -392 21 -40 58 -74 72 -66 4 3 41 -37 82 -87
41 -51 152 -187 246 -303 152 -186 189 -237 164 -222 -5 3 -59 12 -122 21
-242 36 -436 132 -603 300 -126 127 -207 265 -265 452 -26 84 -27 99 -27 284
0 182 2 201 27 281 97 317 293 542 586 673 188 84 382 108 606 74z m70 -308
c66 -28 154 -65 195 -81 76 -32 130 -75 130 -107 0 -9 -16 -56 -37 -104 l-37
-88 -48 0 c-53 0 -53 -1 -36 34 10 23 8 28 -17 48 -36 28 -57 80 -50 121 6 31
4 33 -49 56 l-55 23 -26 -30 c-30 -36 -83 -56 -123 -48 -27 6 -28 4 -71 -99
l-44 -105 -49 0 c-26 0 -48 3 -48 7 0 17 154 370 169 387 16 18 46 34 66 35 6
1 64 -22 130 -49z m-265 -4 c0 -2 -34 -83 -75 -180 -41 -97 -75 -181 -75 -186
0 -6 -14 -10 -31 -10 -24 0 -30 4 -25 15 11 30 76 276 76 290 0 7 12 27 26 44
21 25 33 31 65 31 21 0 39 -2 39 -4z m-184 -53 c-6 -14 -43 -154 -77 -285 -7
-29 -15 -38 -31 -38 -20 0 -21 4 -15 68 13 153 28 221 55 247 29 29 78 35 68
8z m495 -103 c14 -8 19 -21 19 -50 l0 -39 -37 15 c-43 19 -134 11 -154 -12 -6
-8 -16 -14 -22 -14 -5 0 -16 -8 -23 -17 -19 -25 -18 1 1 37 13 25 22 30 54 30
27 0 50 9 77 29 43 33 56 36 85 21z m537 -284 l212 -215 0 -88 c-2 -316 -159
-616 -430 -821 -74 -55 -245 -134 -350 -162 -54 -14 -118 -23 -174 -24 l-90
-1 -59 70 c-32 39 -123 149 -200 245 -78 96 -149 184 -159 195 -10 10 -17 24
-15 30 2 7 157 12 463 15 451 5 460 5 494 27 55 34 80 87 80 169 0 53 5 75 20
94 16 21 20 41 20 126 0 89 -3 105 -22 129 -17 22 -21 39 -19 90 2 65 -18 126
-53 154 -9 8 -16 17 -16 22 0 16 69 159 77 159 5 0 104 -96 221 -214z m-545
170 c36 -14 87 -69 87 -92 0 -11 -27 -14 -151 -14 l-151 0 6 28 c4 15 22 42
41 60 30 27 42 32 85 32 28 0 65 -6 83 -14z m-643 -50 l0 -45 -42 -3 c-24 -2
-43 -7 -43 -13 0 -6 163 -12 460 -15 322 -4 466 -8 480 -17 52 -30 69 -62 73
-133 l4 -70 -131 0 c-151 0 -184 -9 -226 -65 -60 -78 -36 -193 50 -242 36 -20
54 -23 173 -23 l132 0 0 -52 c0 -60 -23 -113 -60 -140 -24 -17 -55 -18 -513
-18 -485 0 -489 0 -519 21 -56 40 -58 56 -58 419 0 367 2 384 62 420 24 14 50
20 96 20 l62 0 0 -44z m960 -355 c5 -11 10 -59 10 -106 0 -129 5 -125 -156
-125 -161 0 -186 9 -215 76 -26 57 -13 111 34 148 31 25 37 26 174 26 131 0
143 -2 153 -19z"/>
<path d="M1162 1183 c-6 -2 -10 -8 -7 -13 3 -5 -18 -31 -47 -59 l-53 -51 -34
40 -33 39 -93 -87 c-51 -47 -91 -90 -88 -95 2 -4 44 28 93 73 l88 80 31 -35
c17 -19 34 -35 39 -35 4 0 32 25 62 55 41 42 57 52 67 43 10 -8 13 -7 13 5 0
8 3 22 6 31 6 16 -15 21 -44 9z"/>
<path d="M1486 1088 c-15 -21 -9 -49 15 -63 18 -11 57 4 64 25 16 50 -48 82
-79 38z"/>
</g>
</svg>
